<?xml version="1.0" encoding="UTF-8"?>
<svg width="164px" height="52px" viewBox="0 0 164 52" version="1.1" xmlns="http://www.w3.org/2000/svg" xmlns:xlink="http://www.w3.org/1999/xlink">
    <title>编组备份</title>
    <g id="页面-1" stroke="none" stroke-width="1" fill="none" fill-rule="evenodd">
        <g id="资源管理系统-登录" transform="translate(-916.000000, -90.000000)" fill="#0086FD">
            <g id="编组备份" transform="translate(913.000000, 87.000000)">
                <g transform="translate(3.000000, 3.000000)">
                    <path d="M68.8264292,33.9453347 L68.8264292,21.6612485 L76.2215173,21.6612485 L84.5184453,33.9453347 L89.9294854,33.9453347 L81.6325573,21.6612485 L89.0276454,21.6612485 L89.0276454,4.86095422 L64.1368611,4.86095422 L64.1368611,33.9453347 L68.8264292,33.9453347 Z M84.5184453,17.506337 L68.8264292,17.506337 L68.8264292,9.01586572 L84.5184453,9.01586572 L84.5184453,17.506337 Z M101.112302,33.9453347 L101.112302,14.4353155 L111.754014,31.2356098 L122.215358,14.4353155 L122.215358,33.9453347 L126.54419,33.9453347 L126.54419,4.86095422 L122.93683,4.86095422 L111.754014,23.2870835 L100.571198,4.86095422 L96.7834695,4.86095422 L96.7834695,33.9453347 L101.112302,33.9453347 Z M138.448478,33.9453347 L138.448478,22.5644902 L158.288958,22.5644902 L158.288958,4.86095422 L133.75891,4.86095422 L133.75891,33.9453347 L138.448478,33.9453347 Z M153.59939,18.4095787 L138.448478,18.4095787 L138.448478,9.01586572 L153.59939,9.01586572 L153.59939,18.4095787 Z" id="RMP" fill-rule="nonzero"></path>
                    <text id="供应链资源管理系统" font-family="PingFangHK-Regular, PingFang HK" font-size="10" font-weight="normal" letter-spacing="1.037037">
                        <tspan x="63.3849377" y="48.6223046">供应链资源管理系统</tspan>
                    </text>
                    <polygon id="Fill-1" points="22.6465887 0 0 13.0385357 0 39.1156071 4.90702764 41.9413281 4.90702764 21.5133046 16.9993457 28.4762609 16.9993457 34.4852072 8.17277776 29.4163059 8.17277776 35.0916879 10.1345485 36.182555 15.068384 47.6993031 21.8239494 51.5839712 16.8905141 40.0795921 21.8239494 42.9136921 21.8239494 25.5037078 4.90702764 15.8634587 22.6465887 5.65024494 22.6477891 5.64984593 40.3737462 15.8634587 40.372946 15.8634587 23.668486 25.4997178 23.668486 51.5839712 28.5703122 48.7602452 28.5703122 28.3278328 32.0209161 26.3316337 32.0209161 46.7500811 36.9227422 43.9267541 36.9227422 23.5015237 40.376547 21.5117086 40.3861498 41.9357421 45.2819742 39.1156071 45.2819742 13.0385357"></polygon>
                </g>
            </g>
        </g>
    </g>
</svg>